<mxfile host="app.diagrams.net" modified="2024-08-06T01:31:04.649Z" agent="Mozilla/5.0 (X11; Linux x86_64; rv:128.0) Gecko/20100101 Firefox/128.0" etag="Z7u1660I1jC3B3sXY14m" version="24.2.1" type="device">
  <diagram name="Page-1" id="WdRzlpsvn2Tba9XeZmaN">
    <mxGraphModel dx="1100" dy="580" grid="1" gridSize="10" guides="1" tooltips="1" connect="1" arrows="1" fold="1" page="1" pageScale="1" pageWidth="1169" pageHeight="827" background="none" math="0" shadow="0">
      <root>
        <mxCell id="0" />
        <mxCell id="1" parent="0" />
        <mxCell id="n87EDvqpTR0pAGlPv8mh-1" value="Mae" style="shape=umlActor;verticalLabelPosition=bottom;verticalAlign=top;html=1;outlineConnect=0;" vertex="1" parent="1">
          <mxGeometry x="440" y="80" width="40" height="80" as="geometry" />
        </mxCell>
        <mxCell id="n87EDvqpTR0pAGlPv8mh-2" value="&lt;div&gt;&amp;lt;&amp;lt;CRUD&amp;gt;&amp;gt;&lt;/div&gt;&lt;div&gt;gerenciar&lt;/div&gt;&lt;div&gt;questao&lt;br&gt;&lt;/div&gt;" style="ellipse;whiteSpace=wrap;html=1;" vertex="1" parent="1">
          <mxGeometry x="520" y="140" width="120" height="60" as="geometry" />
        </mxCell>
        <mxCell id="n87EDvqpTR0pAGlPv8mh-3" value="&lt;div&gt;&amp;lt;&amp;lt;CRUD&amp;gt;&amp;gt;&lt;/div&gt;&lt;div&gt;gerenciar&lt;/div&gt;conteudo" style="ellipse;whiteSpace=wrap;html=1;" vertex="1" parent="1">
          <mxGeometry x="680" y="140" width="120" height="60" as="geometry" />
        </mxCell>
        <mxCell id="n87EDvqpTR0pAGlPv8mh-7" value="&lt;div&gt;&amp;lt;&amp;lt;CRUD&amp;gt;&amp;gt;&lt;/div&gt;&lt;div&gt;gerenciar&lt;/div&gt;&lt;div&gt;disciplina&lt;br&gt;&lt;/div&gt;" style="ellipse;whiteSpace=wrap;html=1;" vertex="1" parent="1">
          <mxGeometry x="600" y="40" width="120" height="60" as="geometry" />
        </mxCell>
        <mxCell id="n87EDvqpTR0pAGlPv8mh-8" value="" style="endArrow=none;html=1;rounded=0;" edge="1" parent="1">
          <mxGeometry width="50" height="50" relative="1" as="geometry">
            <mxPoint x="480" y="120" as="sourcePoint" />
            <mxPoint x="740" y="120" as="targetPoint" />
          </mxGeometry>
        </mxCell>
        <mxCell id="n87EDvqpTR0pAGlPv8mh-9" value="" style="endArrow=none;html=1;rounded=0;" edge="1" parent="1">
          <mxGeometry width="50" height="50" relative="1" as="geometry">
            <mxPoint x="580" y="140" as="sourcePoint" />
            <mxPoint x="580" y="120" as="targetPoint" />
          </mxGeometry>
        </mxCell>
        <mxCell id="n87EDvqpTR0pAGlPv8mh-11" value="" style="endArrow=none;html=1;rounded=0;" edge="1" parent="1">
          <mxGeometry width="50" height="50" relative="1" as="geometry">
            <mxPoint x="739.76" y="140" as="sourcePoint" />
            <mxPoint x="739.76" y="120" as="targetPoint" />
          </mxGeometry>
        </mxCell>
        <mxCell id="n87EDvqpTR0pAGlPv8mh-13" value="" style="endArrow=none;html=1;rounded=0;entryX=0.5;entryY=1;entryDx=0;entryDy=0;" edge="1" parent="1" target="n87EDvqpTR0pAGlPv8mh-7">
          <mxGeometry width="50" height="50" relative="1" as="geometry">
            <mxPoint x="660" y="120" as="sourcePoint" />
            <mxPoint x="610" y="150" as="targetPoint" />
          </mxGeometry>
        </mxCell>
        <mxCell id="n87EDvqpTR0pAGlPv8mh-17" value="&lt;div&gt;selecionar&lt;/div&gt;&lt;div&gt;conteudo&lt;br&gt;&lt;/div&gt;" style="ellipse;whiteSpace=wrap;html=1;" vertex="1" parent="1">
          <mxGeometry x="520" y="280" width="120" height="60" as="geometry" />
        </mxCell>
        <mxCell id="n87EDvqpTR0pAGlPv8mh-19" value="" style="endArrow=classic;html=1;rounded=0;dashed=1;exitX=0.5;exitY=1;exitDx=0;exitDy=0;" edge="1" parent="1" source="n87EDvqpTR0pAGlPv8mh-2">
          <mxGeometry width="50" height="50" relative="1" as="geometry">
            <mxPoint x="590" y="250" as="sourcePoint" />
            <mxPoint x="580" y="280" as="targetPoint" />
          </mxGeometry>
        </mxCell>
        <mxCell id="n87EDvqpTR0pAGlPv8mh-20" value="&amp;lt;&amp;lt;include&amp;gt;&amp;gt;" style="text;html=1;align=center;verticalAlign=middle;whiteSpace=wrap;rounded=0;" vertex="1" parent="1">
          <mxGeometry x="530" y="230" width="30" height="10" as="geometry" />
        </mxCell>
        <mxCell id="n87EDvqpTR0pAGlPv8mh-23" value="&lt;div&gt;selecionar&lt;/div&gt;&lt;div&gt;disciplina&lt;br&gt;&lt;/div&gt;" style="ellipse;whiteSpace=wrap;html=1;" vertex="1" parent="1">
          <mxGeometry x="680" y="280" width="120" height="60" as="geometry" />
        </mxCell>
        <mxCell id="n87EDvqpTR0pAGlPv8mh-24" value="" style="endArrow=classic;html=1;rounded=0;dashed=1;" edge="1" parent="1" source="n87EDvqpTR0pAGlPv8mh-2" target="n87EDvqpTR0pAGlPv8mh-23">
          <mxGeometry width="50" height="50" relative="1" as="geometry">
            <mxPoint x="640" y="260" as="sourcePoint" />
            <mxPoint x="690" y="210" as="targetPoint" />
          </mxGeometry>
        </mxCell>
        <mxCell id="n87EDvqpTR0pAGlPv8mh-25" value="&amp;lt;&amp;lt;include&amp;gt;&amp;gt;" style="text;html=1;align=center;verticalAlign=middle;whiteSpace=wrap;rounded=0;" vertex="1" parent="1">
          <mxGeometry x="660" y="230" width="80" height="10" as="geometry" />
        </mxCell>
        <mxCell id="n87EDvqpTR0pAGlPv8mh-27" value="&lt;div&gt;gerar&lt;/div&gt;&lt;div&gt;teste&lt;br&gt;&lt;/div&gt;" style="ellipse;whiteSpace=wrap;html=1;" vertex="1" parent="1">
          <mxGeometry x="400" y="400" width="120" height="60" as="geometry" />
        </mxCell>
        <mxCell id="n87EDvqpTR0pAGlPv8mh-28" value="" style="endArrow=none;html=1;rounded=0;entryX=0.5;entryY=0;entryDx=0;entryDy=0;" edge="1" parent="1" target="n87EDvqpTR0pAGlPv8mh-27">
          <mxGeometry width="50" height="50" relative="1" as="geometry">
            <mxPoint x="460" y="190" as="sourcePoint" />
            <mxPoint x="780" y="310" as="targetPoint" />
          </mxGeometry>
        </mxCell>
        <mxCell id="n87EDvqpTR0pAGlPv8mh-29" value="" style="endArrow=classic;html=1;rounded=0;exitX=0.5;exitY=1;exitDx=0;exitDy=0;dashed=1;" edge="1" parent="1" source="n87EDvqpTR0pAGlPv8mh-17" target="n87EDvqpTR0pAGlPv8mh-27">
          <mxGeometry width="50" height="50" relative="1" as="geometry">
            <mxPoint x="590" y="430" as="sourcePoint" />
            <mxPoint x="640" y="380" as="targetPoint" />
          </mxGeometry>
        </mxCell>
        <mxCell id="n87EDvqpTR0pAGlPv8mh-31" value="" style="endArrow=classic;html=1;rounded=0;exitX=0.5;exitY=1;exitDx=0;exitDy=0;entryX=1;entryY=0.5;entryDx=0;entryDy=0;dashed=1;" edge="1" parent="1" source="n87EDvqpTR0pAGlPv8mh-23" target="n87EDvqpTR0pAGlPv8mh-27">
          <mxGeometry width="50" height="50" relative="1" as="geometry">
            <mxPoint x="620" y="420" as="sourcePoint" />
            <mxPoint x="670" y="370" as="targetPoint" />
          </mxGeometry>
        </mxCell>
        <mxCell id="n87EDvqpTR0pAGlPv8mh-32" value="&lt;div&gt;&amp;lt;&amp;lt;extend&amp;gt;&amp;gt;&lt;/div&gt;" style="text;html=1;align=center;verticalAlign=middle;whiteSpace=wrap;rounded=0;" vertex="1" parent="1">
          <mxGeometry x="500" y="350" width="30" height="10" as="geometry" />
        </mxCell>
        <mxCell id="n87EDvqpTR0pAGlPv8mh-33" value="&lt;div&gt;&amp;lt;&amp;lt;extend&amp;gt;&amp;gt;&lt;/div&gt;" style="text;html=1;align=center;verticalAlign=middle;whiteSpace=wrap;rounded=0;" vertex="1" parent="1">
          <mxGeometry x="650" y="390" width="30" height="10" as="geometry" />
        </mxCell>
        <mxCell id="n87EDvqpTR0pAGlPv8mh-35" value="&lt;div&gt;&amp;lt;&amp;lt;CRUD&amp;gt;&amp;gt;&lt;/div&gt;&lt;div&gt;gerenciar&lt;/div&gt;&lt;div&gt;gabarito&lt;br&gt;&lt;/div&gt;" style="ellipse;whiteSpace=wrap;html=1;" vertex="1" parent="1">
          <mxGeometry x="280" y="40" width="120" height="60" as="geometry" />
        </mxCell>
        <mxCell id="n87EDvqpTR0pAGlPv8mh-36" value="&lt;div&gt;informar&lt;/div&gt;&lt;div&gt;numero&lt;/div&gt;&lt;div&gt;questoes&lt;br&gt;&lt;/div&gt;" style="ellipse;whiteSpace=wrap;html=1;" vertex="1" parent="1">
          <mxGeometry x="160" y="400" width="120" height="60" as="geometry" />
        </mxCell>
        <mxCell id="n87EDvqpTR0pAGlPv8mh-37" value="" style="endArrow=classic;html=1;rounded=0;exitX=0;exitY=0.5;exitDx=0;exitDy=0;entryX=1;entryY=0.5;entryDx=0;entryDy=0;dashed=1;" edge="1" parent="1" source="n87EDvqpTR0pAGlPv8mh-27" target="n87EDvqpTR0pAGlPv8mh-36">
          <mxGeometry width="50" height="50" relative="1" as="geometry">
            <mxPoint x="320" y="430" as="sourcePoint" />
            <mxPoint x="370" y="380" as="targetPoint" />
          </mxGeometry>
        </mxCell>
        <mxCell id="n87EDvqpTR0pAGlPv8mh-39" value="&amp;lt;&amp;lt;include&amp;gt;&amp;gt;" style="text;html=1;align=center;verticalAlign=middle;whiteSpace=wrap;rounded=0;" vertex="1" parent="1">
          <mxGeometry x="325" y="414" width="30" height="10" as="geometry" />
        </mxCell>
        <mxCell id="n87EDvqpTR0pAGlPv8mh-41" value="&lt;div&gt;solicitar&lt;/div&gt;&lt;div&gt;correcao&lt;/div&gt;&lt;div&gt;automatica&lt;br&gt;&lt;/div&gt;" style="ellipse;whiteSpace=wrap;html=1;" vertex="1" parent="1">
          <mxGeometry x="200" y="140" width="120" height="80" as="geometry" />
        </mxCell>
        <mxCell id="n87EDvqpTR0pAGlPv8mh-42" value="&lt;div&gt;selecionar&lt;/div&gt;&lt;div&gt;questionario&lt;br&gt;&lt;/div&gt;" style="ellipse;whiteSpace=wrap;html=1;" vertex="1" parent="1">
          <mxGeometry x="40" y="60" width="120" height="60" as="geometry" />
        </mxCell>
        <mxCell id="n87EDvqpTR0pAGlPv8mh-43" value="&lt;div&gt;comparar&lt;/div&gt;&lt;div&gt;respostas&lt;br&gt;&lt;/div&gt;" style="ellipse;whiteSpace=wrap;html=1;" vertex="1" parent="1">
          <mxGeometry x="40" y="240" width="120" height="60" as="geometry" />
        </mxCell>
        <mxCell id="n87EDvqpTR0pAGlPv8mh-44" value="" style="endArrow=classic;html=1;rounded=0;exitX=0;exitY=0;exitDx=0;exitDy=0;entryX=1;entryY=1;entryDx=0;entryDy=0;dashed=1;" edge="1" parent="1" source="n87EDvqpTR0pAGlPv8mh-41" target="n87EDvqpTR0pAGlPv8mh-42">
          <mxGeometry width="50" height="50" relative="1" as="geometry">
            <mxPoint x="210" y="150" as="sourcePoint" />
            <mxPoint x="260" y="100" as="targetPoint" />
          </mxGeometry>
        </mxCell>
        <mxCell id="n87EDvqpTR0pAGlPv8mh-45" value="" style="endArrow=classic;html=1;rounded=0;exitX=0;exitY=1;exitDx=0;exitDy=0;entryX=1;entryY=0;entryDx=0;entryDy=0;dashed=1;" edge="1" parent="1" source="n87EDvqpTR0pAGlPv8mh-41" target="n87EDvqpTR0pAGlPv8mh-43">
          <mxGeometry width="50" height="50" relative="1" as="geometry">
            <mxPoint x="80" y="195" as="sourcePoint" />
            <mxPoint x="130" y="145" as="targetPoint" />
          </mxGeometry>
        </mxCell>
        <mxCell id="n87EDvqpTR0pAGlPv8mh-46" value="&lt;div&gt;&amp;lt;&amp;lt;extend&amp;gt;&amp;gt;&lt;/div&gt;" style="text;html=1;align=center;verticalAlign=middle;whiteSpace=wrap;rounded=0;" vertex="1" parent="1">
          <mxGeometry x="180" y="240" width="30" height="10" as="geometry" />
        </mxCell>
        <mxCell id="n87EDvqpTR0pAGlPv8mh-48" value="" style="edgeStyle=orthogonalEdgeStyle;rounded=0;orthogonalLoop=1;jettySize=auto;html=1;" edge="1" parent="1" source="n87EDvqpTR0pAGlPv8mh-47" target="n87EDvqpTR0pAGlPv8mh-42">
          <mxGeometry relative="1" as="geometry" />
        </mxCell>
        <mxCell id="n87EDvqpTR0pAGlPv8mh-47" value="&lt;div&gt;&amp;lt;&amp;lt;extend&amp;gt;&amp;gt;&lt;/div&gt;" style="text;html=1;align=center;verticalAlign=middle;whiteSpace=wrap;rounded=0;" vertex="1" parent="1">
          <mxGeometry x="180" y="110" width="30" height="10" as="geometry" />
        </mxCell>
        <mxCell id="n87EDvqpTR0pAGlPv8mh-49" value="" style="endArrow=none;html=1;rounded=0;" edge="1" parent="1" target="n87EDvqpTR0pAGlPv8mh-1">
          <mxGeometry width="50" height="50" relative="1" as="geometry">
            <mxPoint x="260" y="120" as="sourcePoint" />
            <mxPoint x="430" y="120" as="targetPoint" />
          </mxGeometry>
        </mxCell>
        <mxCell id="n87EDvqpTR0pAGlPv8mh-50" value="" style="endArrow=none;html=1;rounded=0;entryX=0.5;entryY=1;entryDx=0;entryDy=0;" edge="1" parent="1" target="n87EDvqpTR0pAGlPv8mh-35">
          <mxGeometry width="50" height="50" relative="1" as="geometry">
            <mxPoint x="340" y="120" as="sourcePoint" />
            <mxPoint x="400" y="130" as="targetPoint" />
          </mxGeometry>
        </mxCell>
        <mxCell id="n87EDvqpTR0pAGlPv8mh-51" value="" style="endArrow=none;html=1;rounded=0;exitX=0.5;exitY=0;exitDx=0;exitDy=0;" edge="1" parent="1" source="n87EDvqpTR0pAGlPv8mh-41">
          <mxGeometry width="50" height="50" relative="1" as="geometry">
            <mxPoint x="350" y="180" as="sourcePoint" />
            <mxPoint x="260" y="120" as="targetPoint" />
          </mxGeometry>
        </mxCell>
        <mxCell id="n87EDvqpTR0pAGlPv8mh-53" value="Filha" style="shape=umlActor;verticalLabelPosition=bottom;verticalAlign=top;html=1;outlineConnect=0;" vertex="1" parent="1">
          <mxGeometry x="880" y="80" width="40" height="80" as="geometry" />
        </mxCell>
        <mxCell id="n87EDvqpTR0pAGlPv8mh-54" value="&lt;div&gt;responder&lt;/div&gt;&lt;div&gt;questionario&lt;br&gt;&lt;/div&gt;" style="ellipse;whiteSpace=wrap;html=1;" vertex="1" parent="1">
          <mxGeometry x="1000" y="90" width="120" height="60" as="geometry" />
        </mxCell>
        <mxCell id="n87EDvqpTR0pAGlPv8mh-55" value="" style="endArrow=none;html=1;rounded=0;entryX=0;entryY=0.5;entryDx=0;entryDy=0;" edge="1" parent="1" source="n87EDvqpTR0pAGlPv8mh-53" target="n87EDvqpTR0pAGlPv8mh-54">
          <mxGeometry width="50" height="50" relative="1" as="geometry">
            <mxPoint x="830" y="190" as="sourcePoint" />
            <mxPoint x="880" y="140" as="targetPoint" />
          </mxGeometry>
        </mxCell>
      </root>
    </mxGraphModel>
  </diagram>
</mxfile>
